/* XPM */
static char *lava[] = {
/* columns rows colors chars-per-pixel */
"64 64 66 1 ",
"  c #2B2828",
". c #32302F",
"X c #2D2B2B",
"o c #272525",
"O c #262322",
"+ c #302C2B",
"@ c #2C2726",
"# c #292726",
"$ c #302E2D",
"% c #2D2A29",
"& c #292524",
"* c #27211F",
"= c #231F1F",
"- c #2B2421",
"; c #302624",
": c #221C1A",
"> c #343232",
", c #2C211E",
"< c #271E1B",
"1 c #31231D",
"2 c #352722",
"3 c #373534",
"4 c #52271A",
"5 c #492B1C",
"6 c #342B28",
"7 c #402319",
"8 c #472D24",
"9 c #39221A",
"0 c #3B261F",
"q c #412A1E",
"w c #3C2B26",
"e c #692B18",
"r c #622A1E",
"t c #492319",
"y c #2D1E18",
"u c #542E1D",
"i c #72361D",
"p c #7F3219",
"a c #5C2817",
"s c #5C2F1B",
"d c #342017",
"f c #663320",
"g c #744119",
"h c #742C19",
"j c #8B3319",
"k c #653E19",
"l c #513A1B",
"z c #512F25",
"x c #5B371D",
"c c #1D1817",
"v c #853F1A",
"b c #964618",
"n c #973A19",
"m c #AA5716",
"M c #7B4E1B",
"N c #A84015",
"B c #965616",
"V c #8B4C19",
"C c #936D1F",
"Z c #3C3A39",
"A c #664D23",
"S c #B27A16",
"D c #9B2B19",
"F c #825D19",
"G c #BC3817",
"H c #C65B13",
/* pixels */
"0aqee1X.$oo=,z88;=%$:-0p,*<@Z@&&@@@++*<jH7&&%&,9Ck,.$%X #$X-.@=>",
"=tn4% X33#O>$;24a486=::h1=::@+@:*@@*:<0Nh=++> ,5lFx8%$OoXXX9+.o%",
"X=e0Z$ 3>X%>>% @,7jpvMgNa4s91;@=O-8z17en7o>3>X5u=:2lx-o $ &7.3oO",
"%X703>$$ &.X$o%3ote9sVSnpnjjnviiuvmi4rrph $+##5q%o#o8A*XXo&yO-<&",
".%*92.#oOOX#>o#+1i1*&7ec:,*10tt4uu9<--,qj<.XXX;@+##o:AA#Xo X%<O>",
"33o=a7#o XXX3#% ffO:@ui**@>3+O==& O@+&*1vy%$oX O>X%#X*Mlo..33$%.",
"$.=tpa5% >3#%##9p0@-O4e&&O&++O%+$+X@+.@0b<$$o%oO.$X  oqM<;;&.>.#",
" *th0&44-$>$oO-fs-@%&f5O@+#.Z$+&@+33$@&4n-X>o$%@X$+%X=dM112O$$>%",
"*er63X#tr;. u50f-+@%-vq#&&+&6+X.+% &O--rh= 3##&%>+@; =Aq$.>X>% .",
"s4% # .Xtrtvm410@+&=1v2.%&&wz-w.+@&O-0<e7o %%o#@888q-*C2  X>3O=o",
"u@  O%>%o7Nb7=@ ++@@qV-;@ &8f,28%  %%::pd%%o.# #8f*==yF63X# #=X5",
"&# $.+OOO<pd**-+.@&Osg=*.++28;&8;o$.O:lm51&O.Xoo%q;&Osvd2w6+oX6f",
"O%>>3+%X#1nd*@%@. @OpsO@+#&;% %&@ @6*ySMlll& .&o >.@*pt-<0tt7;s4",
"->.##o>3$1j4:-;%+.%,v5&OX..  $$ ###-,sm<#-Alo$.o%.>#7D,$@o&,5iv,",
"0;o%#$X##Otj7-+@&%-*gqO&%$##X X> &O*,ba= #=xuq2;% $&4h ++$$&o2fs",
"8z8; X#%%&=ep<;;021<v1 +% oo&o #o+&:MB* OO 6q8w8w-o=rt >. %&%.@,",
"%;wz2#%w0-*djusfiMgxV<&+ &&  %&XX&OlSq# #% X ##;8zqup7O + #%@&O=",
"3X#1r6%8qz5qni2;-;15Mxq:=O#wxfe5q9<jg=##%3>$+$%@;2qxv4= #O#+.@#.",
"%&@Owz88%6-<he&@&%&*:qSA:&8xu70294hG9#& +%$%O&@o%  cis=%Xo.X>.&%",
"+O@&&-iq..@:tj-.-&+@=kFCCAl@##>.# dDt%+XX+ o%@&O$+#:gxo +  % % X",
"$+;-&qi-&+@&9j0.+.@O2g,:lCl6%X$.3Z$ta=%$ .$o%..#XXX=MlO3> X6288&",
"6.%;ss0O=%@@,r0@%;rrg5==:y95q $3>3.1r-X$X +X#%$%..% xk=%@0kggxzx",
"kx1ai-&&@+@@-sa44rrapit-%@&-8= >>.$=a2@ 66+X%# ..3#Os7d5ivl;%X&0",
",xbs%$+& $>.*r4q70=:*ws4&2-Oq-O#X3%:s7<-10;@% O#oX>=ggsuq,=%$#=O",
";<B5O@++.# =5z.#=;0O .%sffgAM5=O $&&rr9t=@@u;#Oo.$X%qg-::=&%#=*.",
"-,F0*&O$+ Ozf6.&o28 #oX,i91qkk@+$>$q07eh5$ws&&&%. =X&Bl:<&%&;6# ",
"*2M<==:*% 8g,XX $>X> XX=15& tv@66;02.$yab191@@&%OO=#1NNd:*&Xww#$",
"&0Ck5<OO=-g2=XX X+XXo#+%;5OOeh74uz2.$>.OgVy=o&,q5z4avabm1&.$w;6.",
"&lM5ivfkuFA %o#X#+$oX%..3u@ 0e<*&2;> $3$OkMtahnvMii4q dmg=+. -8;",
"-fu=:18xkCC;$XXoX$ o>X>.>82+;eyO X@>3>3.3#diHit*=o%= @=tN1+%=23.",
"fi-+*->OccFlX3Xo$.%X$ >>X6q#2g%.3$%>ZZZ>>Oybe:=&##XO+=<dj5@**8Z3",
"mq=%@+.-=:Ml#X ..$+X$> %#*h78kX +>oo%>X$1kVg<<O&&.% %&22ee12@;>$",
"i-@+&+3O*:gx &&%O:=#%$o=1apBCk:,<d<,<cc4akq&@;@ #+3ZO 6<4Nd<*@%2",
"5*>+O$$*-=vr==OOcc X#XX149:5kmaarjefrrh4:#XX>%;+o%.X %3@9Dt:188u",
"u2.O+>+-;yjey<<dqkf5d224,*:7<02:a4ty17je-$XX$ &;X$.OX%3-7pr1;-<0",
"id%=+&**<hGGNvmSBBBbnhpjr1<,X..aeO@@<:tnq$ -@+$+%.>==X.0rx5hr1::",
"pe2,-::*,atddymVccc&;**2ug,$33@b4=X%%*:sv2%=*@+%;3>&:<fp9y*0nj47",
"vSBBbirt7ht;<cpm<&= X%$$ouk6.3;p2$>+>;y:bu=O#@.$-%&*4jnqO*@ 2zre",
"5g174srrrhe*<<eGyXXX$ X$#olA2#54%. X.%1:gm0 $@-&=*5fbs0@%%+$3.%@",
"Vz@O%&=::tDy;-yNao>>XX#>.XXqx4u: # >>.o:7b2O%OOX:MB9,#&@$.%$$ >>",
"V8@.3.$+-4j;61ceNd X$ OX>%*=1p8O&#.>>>.#5so@% O@xS5,O;6@&#>. O+$",
"b0&+ +@O1Vi*%-9hpmkXX$%$>+y747+%O .$X>>*jN51uaapmk12;;&#o%+$Oo $",
"b2@+$ @*-gVy1ii7ypmsO #%o2hh5-2@X X & 2atuiVVpnjt71-++&% # XO#X3",
"iw+%#.>@::k5xuz1-*dpr;o *h5o+ 8w X3.O=ur=O70<yejc<-@66+#%#o $.# ",
"fw ##+#68kVk0@--%%=<rf:1suXX% 26X%.3X=fi=-;&*14N9=*@6w6$o # X>.+",
"uw%& %&8qlB9:*%%%$% ,pefqO%X%%&o.+;@+=MBx1-&@;1pn,<;+%++%$#o#.+%",
"8@Oo%@w-@@upyO@%;w@%%tGuO&%% .o=+X2-*9V95iz26.@9D4@1+%+-;w88www8",
"812llw-@@&Oheo@$;z&@+ ub7#% 26 ...$<,fb:--2zww;-4e-,2@# *@%+++.;",
"ffuSA=+.@OO4h&@.@z;&O@&aj=3.8;$>+>69Osv:-;;z2;1-1ha1q;.>&X>.%$Z%",
"9,*ClO.%&% te#%+&zw&-;@1D7#;7=,,<-99Ofg**8zz;-&-08nr*&%>%  o $3.",
"&&Ol8O$% >$uf%@+ 85*-;-:aD75er4ebgvn4je@*@zz*2ww2%uN4#%%O=Z3X+.w",
"&$=lA=@=&$Ofs&+.-yrdy<yapDvifq;7mddtind@-&,f2%6;&@&4jy&% :+X%X#8",
"$6yFl=%#&X@i7O@@*yhmvvnjt1,*&O@qmy:<10*O*&*vq+.&@@;=aaO  OO#  #;",
"zgkCx:$ %%%i1O*@1gHssB9<:*@*-26wBt<1ww++@%;Vf8;.6++@7nt552:=@X>3",
"i9=O9u&#X+@r1O1ffgq=:B5:-@$OO86O9hd;.%@+&-wz188w@@*<eNhbbs5x1o#q",
"&$$$&kz $.#u4xMx;*&O=uj1+@@&&w;0gNp,+%&@6zzw#O&w8;*:ja=-@&xBvd5g",
" +>>X-u06 1ii51O.%%%&>rr &OO#+2is9nu%@@w2;;+.++&22*yj1$$$##@5755",
"X&O#X O5k9y0*-@#%%. O.4rO*# @+w6:csb;++6%&O >X$@*<<hb&%o%* $=1*2",
">O=#$$#X-5k;#& % + =#oeeOO%%%ZZ2<:db1O.+X+&=+X +O=4Hso$$$ $XXwqX",
"333X.> $XkM2o% $#X&@>@pro.% +$+-2:<pi*+%&>%&%%%O:eN4 .XX>$>.36l@",
"$$3> 33Xqk12% $.o>%6w2pr@-;@#+&@2*<7n9-%@$%@@. oqm7#3.oX$O .3.x0",
"#>>$X$.2r2%2 +$XoX#@2*4h--2>.>&;8-6-ph*@-0011=O-CAo##$$o:co $$1f",
"5X3>>o9a9o>86>O=&#O&&&tp--6% 3+.w..@0p49hGNmgllgC:#O#X$o:=$%#$Xq",
"e0Z.-4a; %.6w@=#>= XO.0j6;2&+6X+&&>6-9u7pj97dCSme=#X$X %#X.$X#%$"
};
